# xmcd
# Copyright (c) 1998 CDDB Inc.
#
# Track frame offsets:
#	182
#	11162
#	22392
#	36750
#	52902
#	63952
#	73672
#	84635
#	93730
#	105497
#
# Disc length: 1618 seconds
#
# Revision: 1
# Processed by: cddbd v1.4PL0 Copyright (c) Steve Scherf et al.
# Submitted via: audiograbber 1.70
#
DISCID=8406500a
DTITLE=Frankie Laine - Best Of Frankie Laine
DYEAR=1900
DGENRE=
TTITLE0=I Believe
TTITLE1=He
TTITLE2=May the Good Lord Bless and Keep You
TTITLE3=The Green Leaves of Summer
TTITLE4=The Sound of Silence
TTITLE5=My Friend
TTITLE6=Answer Me, My Love
TTITLE7=Teach Me to Pray
TTITLE8=Oh Bless This House
TTITLE9=Come Sunday
EXTD=
EXTT0=
EXTT1=
EXTT2=
EXTT3=
EXTT4=
EXTT5=
EXTT6=
EXTT7=
EXTT8=
EXTT9=
PLAYORDER=
